<svg width="13" height="13" viewBox="0 0 13 13" fill="none" xmlns="http://www.w3.org/2000/svg">
<path d="M6.50016 11.9167C9.49171 11.9167 11.9168 9.49154 11.9168 6.5C11.9168 3.50845 9.49171 1.08333 6.50016 1.08333C3.50862 1.08333 1.0835 3.50845 1.0835 6.5C1.0835 9.49154 3.50862 11.9167 6.50016 11.9167Z" stroke="#424242" stroke-linecap="round" stroke-linejoin="round"/>
<path d="M4.92383 4.875C5.05118 4.51299 5.30254 4.20773 5.63339 4.01328C5.96424 3.81884 6.35323 3.74776 6.73147 3.81264C7.1097 3.87752 7.45277 4.07416 7.69991 4.36775C7.94705 4.66133 8.08232 5.03291 8.08174 5.41667C8.08174 6.5 6.45674 7.04167 6.45674 7.04167" stroke="#424242" stroke-linecap="round" stroke-linejoin="round"/>
<path d="M6.5 9.20833H6.50458" stroke="#424242" stroke-linecap="round" stroke-linejoin="round"/>
</svg>
