<svg width="20" height="21" viewBox="0 0 20 21" fill="none" xmlns="http://www.w3.org/2000/svg">
<g clip-path="url(#clip0_340_11)">
<path d="M19.1666 16.3333C19.1666 16.7754 18.9911 17.1993 18.6785 17.5118C18.3659 17.8244 17.942 18 17.5 18H2.49998C2.05795 18 1.63403 17.8244 1.32147 17.5118C1.00891 17.1993 0.833313 16.7754 0.833313 16.3333V7.16667C0.833313 6.72464 1.00891 6.30072 1.32147 5.98816C1.63403 5.67559 2.05795 5.5 2.49998 5.5H5.83331L7.49998 3H12.5L14.1666 5.5H17.5C17.942 5.5 18.3659 5.67559 18.6785 5.98816C18.9911 6.30072 19.1666 6.72464 19.1666 7.16667V16.3333Z" stroke="#818181" stroke-width="2" stroke-linecap="round" stroke-linejoin="round"/>
<path d="M10 14.6667C11.841 14.6667 13.3334 13.1743 13.3334 11.3333C13.3334 9.49238 11.841 8 10 8C8.15907 8 6.66669 9.49238 6.66669 11.3333C6.66669 13.1743 8.15907 14.6667 10 14.6667Z" stroke="#818181" stroke-width="2" stroke-linecap="round" stroke-linejoin="round"/>
</g>
<defs>
<clipPath id="clip0_340_11">
<rect width="20" height="20" fill="white" transform="translate(0 0.5)"/>
</clipPath>
</defs>
</svg>
