<svg class="svg-icon" style="width: 1em; height: 1em;vertical-align: middle;fill: currentColor;overflow: hidden;" viewBox="0 0 1024 1024" version="1.1" xmlns="http://www.w3.org/2000/svg"><path d="M785.066667 870.4H187.733333C85.333333 870.4 0 785.066667 0 682.666667c0-98.986667 75.093333-177.493333 170.666667-187.733334V477.866667c0-177.493333 146.773333-324.266667 324.266666-324.266667 146.773333 0 276.48 98.986667 314.026667 238.933333 122.88 10.24 215.04 112.64 215.04 238.933334 0 133.12-105.813333 238.933333-238.933333 238.933333z m-597.333334-341.333333C102.4 529.066667 34.133333 597.333333 34.133333 682.666667s68.266667 153.6 153.6 153.6H785.066667c112.64 0 204.8-92.16 204.8-204.8 0-109.226667-85.333333-201.386667-194.56-204.8-6.826667 0-13.653333-6.826667-17.066667-13.653334-30.72-133.12-146.773333-225.28-283.306667-225.28C334.506667 187.733333 204.8 317.44 204.8 477.866667c0 10.24 0 20.48 3.413333 34.133333 0 6.826667 0 10.24-3.413333 13.653333-6.826667 3.413333-10.24 3.413333-17.066667 3.413334z" fill="" /></svg>