<svg width="23" height="24" viewBox="0 0 23 24" fill="none" xmlns="http://www.w3.org/2000/svg">
<path fill-rule="evenodd" clip-rule="evenodd" d="M3.54712 6.36533L9.28138 9.47742C11.2211 10.5299 11.7903 10.5299 13.73 9.47742L19.4643 6.36533C20.815 5.63913 22.6429 5.89324 22.6429 8.0638V15.937C22.6429 18.1075 20.8023 18.359 19.4586 17.6368L13.7244 14.5247C11.7846 13.4722 11.2154 13.4722 9.27571 14.5247L3.54146 17.6368C2.19072 18.359 0.357178 18.1075 0.357178 15.937V8.0638C0.357178 5.89324 2.1978 5.64314 3.54146 6.36533H3.54712ZM8.84954 10.1782L3.11528 7.06612C2.82895 6.90836 2.5051 6.82142 2.17373 6.81335C2.0152 6.809 1.85789 6.84065 1.71499 6.90563C1.58903 6.96867 1.4856 7.06544 1.41766 7.18381C1.276 7.45709 1.21023 7.75991 1.22652 8.0638V15.937C1.2101 16.2409 1.27588 16.5437 1.41766 16.817C1.48558 16.9357 1.58898 17.0329 1.71499 17.0965C1.85801 17.161 2.01532 17.1922 2.17373 17.1874C2.50499 17.1799 2.82887 17.0934 3.11528 16.936L8.84954 13.8252C9.95249 13.2274 10.6902 12.9279 11.5057 12.9279C12.3212 12.9279 13.0632 13.2261 14.1619 13.8252L19.8961 16.936C20.1825 17.0934 20.5064 17.1799 20.8377 17.1874C20.9966 17.1924 21.1544 17.1612 21.2978 17.0965C21.4231 17.0324 21.5259 16.9353 21.5937 16.817C21.7362 16.5439 21.8021 16.2409 21.7849 15.937V8.0638C21.8019 7.75986 21.7361 7.45688 21.5937 7.18381C21.5259 7.06582 21.4231 6.96913 21.2978 6.90563C21.1545 6.84044 20.9967 6.80879 20.8377 6.81335C20.5063 6.82142 20.1824 6.90836 19.8961 7.06612L14.1619 10.1782C13.0589 10.776 12.3212 11.0756 11.5057 11.0756C10.6902 11.0756 9.94825 10.776 8.84954 10.1782Z" fill="#17A63F"/>
<path fill-rule="evenodd" clip-rule="evenodd" d="M20.9287 18.9972C20.8336 19.0696 20.7343 19.1359 20.6311 19.1956L16.8956 21.3819L13.1601 23.5641C12.6516 23.85 12.0802 24 11.4994 24C10.9186 24 10.3472 23.85 9.83874 23.5641L6.10461 21.3819L2.36911 19.1956C2.26615 19.1355 2.16678 19.0693 2.07153 18.9972C2.20106 19.0152 2.33164 19.0241 2.46236 19.0238C3.0743 19.0146 3.67377 18.8462 4.20395 18.5348H4.21081L9.76469 15.2839C10.5751 14.8089 11.077 14.5728 11.4994 14.5714C11.9218 14.5701 12.4237 14.8089 13.2355 15.2839L18.7894 18.5348H18.7963C19.3262 18.8473 19.9257 19.0166 20.5378 19.0266C20.6686 19.0269 20.7992 19.018 20.9287 19V18.9972Z" fill="#17A63F"/>
<path fill-rule="evenodd" clip-rule="evenodd" d="M20.9287 5.00476C20.8337 4.93195 20.7343 4.86526 20.6311 4.80507L16.8959 2.62109L13.1607 0.435717C12.6522 0.149907 12.0809 0 11.5001 0C10.9193 0 10.348 0.149907 9.83955 0.435717L6.10569 2.62109L2.36909 4.80507C2.26613 4.8656 2.16677 4.93228 2.07153 5.00476C2.20094 4.98564 2.33157 4.9763 2.46233 4.97683C3.07483 4.98733 3.67462 5.15649 4.20517 5.46836H4.21202L9.7655 8.7164C10.5759 9.19118 11.0778 9.42857 11.5001 9.42857C11.9224 9.42857 12.4243 9.19118 13.2361 8.7164L18.7896 5.46836H18.7964C19.3265 5.15666 19.9258 4.98751 20.5379 4.97683C20.6686 4.9763 20.7993 4.98564 20.9287 5.00476Z" fill="#17A63F"/>
</svg>
