<svg width="14" height="14" viewBox="0 0 14 14" fill="none" xmlns="http://www.w3.org/2000/svg">
<path d="M7 13L7 11.8M7 2.2L7 1L7 2.2Z" stroke="#424242" stroke-linecap="round" stroke-linejoin="round"/>
<path d="M7 2.5C6.10999 2.5 5.23996 2.76392 4.49994 3.25839C3.75991 3.75285 3.18314 4.45566 2.84254 5.27792C2.50195 6.10019 2.41283 7.00499 2.58647 7.87791C2.7601 8.75082 3.18868 9.55264 3.81802 10.182C4.44736 10.8113 5.24918 11.2399 6.12209 11.4135C6.99501 11.5872 7.89981 11.498 8.72208 11.1575C9.54434 10.8169 10.2471 10.2401 10.7416 9.50006C11.2361 8.76004 11.5 7.89001 11.5 7C11.5 5.80652 11.0259 4.66193 10.182 3.81802C9.33807 2.97411 8.19347 2.5 7 2.5Z" stroke="#424242" stroke-miterlimit="10"/>
<path d="M7 5C6.60444 5 6.21776 5.1173 5.88886 5.33706C5.55996 5.55682 5.30362 5.86918 5.15224 6.23463C5.00087 6.60008 4.96126 7.00222 5.03843 7.39018C5.1156 7.77814 5.30608 8.13451 5.58579 8.41421C5.86549 8.69392 6.22186 8.8844 6.60982 8.96157C6.99778 9.03874 7.39991 8.99913 7.76537 8.84776C8.13082 8.69638 8.44318 8.44004 8.66294 8.11114C8.8827 7.78224 9 7.39556 9 7C9 6.46957 8.78929 5.96086 8.41421 5.58579C8.03914 5.21071 7.53043 5 7 5Z" fill="#424242"/>
<path d="M1 7H2.2M11.8 7H13H11.8Z" stroke="#424242" stroke-linecap="round" stroke-linejoin="round"/>
</svg>
