<svg width="4" height="28" viewBox="0 0 4 28" fill="none" xmlns="http://www.w3.org/2000/svg">
<path d="M2 15C2.55228 15 3 14.5523 3 14C3 13.4477 2.55228 13 2 13C1.44772 13 1 13.4477 1 14C1 14.5523 1.44772 15 2 15Z" stroke="#424242" stroke-width="2" stroke-linecap="round" stroke-linejoin="round"/>
<path d="M2 8C2.55228 8 3 7.55228 3 7C3 6.44772 2.55228 6 2 6C1.44772 6 1 6.44772 1 7C1 7.55228 1.44772 8 2 8Z" stroke="#424242" stroke-width="2" stroke-linecap="round" stroke-linejoin="round"/>
<path d="M2 22C2.55228 22 3 21.5523 3 21C3 20.4477 2.55228 20 2 20C1.44772 20 1 20.4477 1 21C1 21.5523 1.44772 22 2 22Z" stroke="#424242" stroke-width="2" stroke-linecap="round" stroke-linejoin="round"/>
</svg>
