<svg width="36" height="36" viewBox="0 0 36 36" fill="none" xmlns="http://www.w3.org/2000/svg">
<rect width="36" height="36" rx="4" fill="#00760E"/>
<path d="M9 9H12V12H9V9Z" fill="white"/>
<path d="M15 6V15H6V6H15ZM13.5 7.5H7.5V13.5H13.5V7.5ZM12 24H9V27H12V24Z" fill="white"/>
<path d="M15 21V30H6V21H15ZM7.5 22.5V28.5H13.5V22.5H7.5ZM24 9H27V12H24V9Z" fill="white"/>
<path d="M21 6V15H30V6H21ZM28.5 7.5V13.5H22.5V7.5H28.5ZM18 7.5V6H19.5V9H18V12H16.5V7.5H18ZM18 15V12H19.5V15H18ZM15 18V16.5H16.5V15H18V18H19.5V16.5H27V18H21V19.5H16.5V18H15ZM15 18V19.5H9V18H7.5V19.5H6V16.5H10.5V18H15ZM30 19.5H28.5V16.5H30V19.5ZM28.5 19.5H27V22.5H30V21H28.5V19.5ZM22.5 19.5H25.5V21H24V22.5H22.5V19.5ZM25.5 24V22.5H24V24H22.5V25.5H19.5V27H24V24H25.5ZM25.5 24H30V25.5H27V27H25.5V24ZM19.5 22.5V24H21V21H16.5V22.5H19.5Z" fill="white"/>
<path d="M16.5 24H18V28.5H24V30H16.5V24ZM30 27V30H25.5V28.5H28.5V27H30Z" fill="white"/>
</svg>
