<svg width="16" height="16" viewBox="0 0 16 16" fill="none" xmlns="http://www.w3.org/2000/svg">
<path d="M10.7061 13.6428C10.6427 13.5792 10.5594 13.5448 10.4707 13.5448H9.46231C9.41318 13.5448 9.36666 13.555 9.32425 13.5749L10.7061 13.6428ZM10.7061 13.6428C10.7689 13.7054 10.8035 13.7889 10.8035 13.8776L10.7061 13.6428ZM9.29737 14.0417L9.29724 14.0416C9.25337 13.9978 9.22928 13.9398 9.22928 13.8776C9.22928 13.7873 9.28223 13.7043 9.36604 13.6657L9.36674 13.6654C9.39528 13.652 9.42722 13.6448 9.46231 13.6448H10.4707C10.5328 13.6448 10.5906 13.6686 10.6353 13.7134L10.6355 13.7137C10.6794 13.7574 10.7035 13.8154 10.7035 13.8776L10.7035 13.8785C10.7036 13.8947 10.7019 13.9112 10.6987 13.9262C10.6763 14.0326 10.58 14.1106 10.4707 14.1106H9.46231C9.40039 14.1106 9.34244 14.0868 9.29737 14.0417ZM15.2707 8.6217C15.2707 8.03287 14.9291 7.52346 14.4349 7.2784C14.3668 5.76558 13.7468 4.35254 12.6692 3.27495C11.5245 2.13012 10.0028 1.49961 8.38533 1.49961C5.13862 1.49961 2.4823 4.06737 2.33605 7.27837C1.8416 7.52343 1.49998 8.03288 1.49998 8.62213V10.1936C1.49998 11.0204 2.17249 11.6932 2.99959 11.6932C3.55425 11.6932 4.00518 11.2422 4.00518 10.6876V8.1279C4.00518 7.63969 3.65491 7.23693 3.19448 7.14592C3.40459 4.46575 5.65194 2.34878 8.38533 2.34878C9.77657 2.34878 11.0843 2.89088 12.069 3.87556C12.9515 4.75805 13.4766 5.90158 13.5752 7.14626C13.1153 7.23767 12.7657 7.64017 12.7657 8.1279V10.6874C12.7657 11.1817 13.1245 11.5885 13.5936 11.6725V12.2317C13.5936 12.9049 13.0457 13.4526 12.3725 13.4526H11.4628C11.4104 13.328 11.3356 13.2119 11.2359 13.1126C11.0321 12.908 10.76 12.7952 10.4709 12.7952H9.46252C9.30351 12.7952 9.15023 12.829 9.0096 12.8945C8.62709 13.0703 8.38033 13.4559 8.38033 13.8772C8.38033 14.1663 8.49318 14.4385 8.6975 14.6419C8.90168 14.8465 9.17376 14.9594 9.46252 14.9594H10.4709C10.9081 14.9594 11.2949 14.692 11.463 14.3018H12.3725C13.5143 14.3018 14.4428 13.3733 14.4428 12.2317V11.5325C14.9328 11.2859 15.2707 10.779 15.2707 10.1931V8.6217ZM3.1558 8.1279V10.6874C3.1558 10.7735 3.08561 10.8438 2.99937 10.8438C2.64086 10.8438 2.34893 10.5519 2.34893 10.1933V8.62192C2.34893 8.26321 2.64084 7.97147 2.99937 7.97147C3.08561 7.97147 3.1558 8.04177 3.1558 8.1279ZM14.4215 10.1933C14.4215 10.5519 14.1296 10.8438 13.7711 10.8438C13.6849 10.8438 13.6146 10.7736 13.6146 10.6874V8.1279C13.6146 8.04177 13.6848 7.97147 13.7711 7.97147C14.1296 7.97147 14.4215 8.26341 14.4215 8.62192V10.1933Z" fill="#514D56" stroke="#514D56" stroke-width="0.2"/>
<path opacity="0.4" d="M5.49998 8.99169C5.49998 9.63615 6.00329 10.165 6.63758 10.2059V10.698C6.63758 10.9634 6.7961 11.1997 7.04134 11.2993L7.04169 11.2994C7.12028 11.331 7.20249 11.3469 7.28434 11.3469C7.45391 11.3469 7.61962 11.2797 7.74134 11.1542L8.69231 10.2084H10.1297C10.8007 10.2084 11.3464 9.66254 11.3464 8.99169V6.71631C11.3464 6.39208 11.2195 6.08626 10.9896 5.85639C10.7597 5.62652 10.4541 5.49961 10.1297 5.49961H6.71667C6.04565 5.49961 5.49998 6.04528 5.49998 6.71631V8.99169ZM8.2863 9.58695L8.28624 9.58701L7.36483 10.5034V9.84485C7.36483 9.6442 7.20222 9.48132 7.0013 9.48132H6.71685C6.44689 9.48132 6.22723 9.26151 6.22723 8.99169V6.71631C6.22723 6.44633 6.44687 6.22669 6.71685 6.22669H10.1298C10.2602 6.22669 10.3826 6.27748 10.4757 6.37045C10.5688 6.46352 10.6195 6.58606 10.6195 6.71631V8.99169C10.6195 9.26165 10.3997 9.48132 10.1298 9.48132H8.54264C8.44646 9.48132 8.35438 9.51936 8.2863 9.58695Z" fill="#514D56" stroke="#514D56" stroke-width="0.2"/>
<path d="M7.1429 7.50684C6.92855 7.50684 6.75409 7.68147 6.75409 7.89564C6.75409 8.10981 6.92873 8.28445 7.1429 8.28445C7.35742 8.28445 7.53205 8.10981 7.53205 7.89564C7.53205 7.68147 7.35759 7.50684 7.1429 7.50684Z" fill="#514D56"/>
<path d="M8.42299 7.50684C8.20864 7.50684 8.03418 7.68147 8.03418 7.89564C8.03418 8.10981 8.20882 8.28445 8.42299 8.28445C8.63768 8.28445 8.81215 8.10981 8.81215 7.89564C8.81215 7.68147 8.63768 7.50684 8.42299 7.50684Z" fill="#514D56"/>
<path d="M9.70302 7.50684C9.48867 7.50684 9.31421 7.68147 9.31421 7.89564C9.31421 8.10981 9.48885 8.28445 9.70302 8.28445C9.91754 8.28445 10.0922 8.10981 10.0922 7.89564C10.0922 7.68147 9.91754 7.50684 9.70302 7.50684Z" fill="#514D56"/>
</svg>
