<svg width="16" height="16" viewBox="0 0 16 16" fill="none" xmlns="http://www.w3.org/2000/svg">
<circle opacity="0.4" cx="7.71935" cy="4.51836" r="3.18535" stroke="#514D56" stroke-width="1.2" stroke-linecap="round" stroke-linejoin="round"/>
<path fill-rule="evenodd" clip-rule="evenodd" d="M2.6667 12.1337C2.66584 11.9098 2.71592 11.6886 2.81315 11.4869C3.11826 10.8767 3.97867 10.5532 4.69263 10.4068C5.20754 10.2969 5.72956 10.2235 6.2548 10.1871C7.22725 10.1017 8.20531 10.1017 9.17776 10.1871C9.70295 10.2239 10.2249 10.2973 10.7399 10.4068C11.4539 10.5532 12.3143 10.8462 12.6194 11.4869C12.8149 11.8981 12.8149 12.3755 12.6194 12.7867C12.3143 13.4274 11.4539 13.7203 10.7399 13.8606C10.2256 13.9751 9.70342 14.0506 9.17776 14.0864C8.38626 14.1535 7.59108 14.1658 6.7979 14.123C6.61483 14.123 6.43786 14.123 6.2548 14.0864C5.73111 14.051 5.2109 13.9755 4.69873 13.8606C3.97867 13.7203 3.12436 13.4274 2.81315 12.7867C2.71642 12.5826 2.66639 12.3595 2.6667 12.1337Z" stroke="#514D56" stroke-width="1.2" stroke-linecap="round" stroke-linejoin="round"/>
</svg>
